<?xml version="1.0" standalone="no"?>
<!DOCTYPE svg PUBLIC "-//W3C//DTD SVG 20010904//EN"
 "http://www.w3.org/TR/2001/REC-SVG-20010904/DTD/svg10.dtd">
<svg version="1.0" xmlns="http://www.w3.org/2000/svg" width="512.000000pt" height="512.000000pt" viewBox="0 0 512.000000 512.000000" preserveAspectRatio="xMidYMid meet"><g transform="translate(0.000000,512.000000) scale(0.100000,-0.100000)"
stroke="none"> <path d="M2365 4363 c-314 -67 -551 -324 -596 -649 -34 -246 74 -517 271 -680 66 -54 211 -128 300 -151 90 -24 300 -24 389 1 263 72 478 286 546 541 84 321 -58 674 -339 844 -166 100 -380 135 -571 94z m325 -179 c199 -56 363 -224 415 -424 23 -88 17 -242 -13 -324 -87 -240 -309 -398 -557 -397 -172 0 -297 53 -420 176 -155 155 -209 351 -154 557 84 310 419 499 729 412z"/>
<path d="M3945 3842 c-210 -63 -372 -231 -420 -434 -63 -267 71 -549 315 -666 101 -48 163 -62 274 -62 265 0 496 176 572 435 23 80 23 230 0 309 -56 190 -198 342 -377 406 -90 31 -278 38 -364 12z m260 -167 c80 -21 145 -58 203 -117 164 -165 160 -422 -9 -583 -171 -164 -424 -162 -590 4 -101 102 -143 235 -115 370 49 236 283 385 511 326z"/>
<path d="M860 3804 c-208 -56 -364 -209 -426 -419 -23 -80 -23 -230 0 -310 55 -188 199 -342 379 -405 87 -31 258 -38 346 -15 214 56 387 229 436 437 19 81 19 196 0 277 -49 207 -230 387 -437 436 -80 19 -226 18 -298 -1z m250 -170 c165 -37 290 -172 320 -345 46 -266 -215 -521 -483 -471 -283 53 -437 349 -311 598 53 104 181 201 296 223 66 13 103 12 178 -5z"/>
<path d="M2355 2759 c-161 -24 -346 -88 -490 -170 -93 -53 -228 -154 -278 -207 l-29 -30 -86 44 c-48 24 -127 56 -177 71 -84 25 -102 27 -280 27 -179 0 -195 -1 -280 -27 -349 -107 -596 -351 -702 -693 -27 -88 -27 -93 -28 -360 l0 -271 28 -40 c15 -22 50 -52 76 -67 l49 -26 501 0 501 0 5 -28 c16 -75 28 -103 66 -146 23 -26 60 -57 83 -69 l41 -22 1205 0 1205 0 41 22 c48 26 110 92 130 138 7 18 16 62 20 99 l7 66 494 0 c538 0 535 0 596 58 16 15 38 44 49 66 19 36 19 54 16 295 -4 244 -6 260 -32 346 -53 175 -129 303 -258 432 -299 303 -767 385 -1155 203 -46 -21 -96 -48 -112 -60 l-30 -20 -88 70 c-200 161 -443 267 -686 299 -92 13 -316 12 -402 0z m336 -169 c198 -23 400 -98 566 -212 202 -137 381 -374 458 -602 52 -154 57 -195 62 -497 5 -312 5 -316 -50 -349 -31 -19 -61 -20 -1167 -20 -1106 0 -1136 1 -1167 20 -55 33 -55 37 -50 349 5 302 10 343 62 497 177 528 730 878 1286 814z m1571 -214 c276 -53 522 -252 624 -504 49 -123 56 -167 61 -388 l5 -211 -23 -17 c-21 -14 -75 -16 -495 -16 l-471 0 -7 148 c-15 325 -82 544 -239 775 l-66 97 67 34 c182 90 360 117 544 82z m-3038 -76 c44 -11 110 -34 147 -51 l67 -31 -55 -84 c-98 -151 -166 -326 -197 -504 -9 -52 -19 -175 -23 -272 l-6 -178 -477 0 c-461 0 -478 1 -495 20 -16 17 -17 38 -12 227 4 172 8 220 26 280 94 321 339 545 666 609 93 18 257 11 359 -16z"/> </g>
</svg>
