<?xml version="1.0" standalone="no"?>
<!DOCTYPE svg PUBLIC "-//W3C//DTD SVG 20010904//EN"
 "http://www.w3.org/TR/2001/REC-SVG-20010904/DTD/svg10.dtd">
<svg version="1.0" xmlns="http://www.w3.org/2000/svg" width="512.000000pt" height="512.000000pt" viewBox="0 0 512.000000 512.000000"
 preserveAspectRatio="xMidYMid meet"> <g transform="translate(0.000000,512.000000) scale(0.100000,-0.100000)" stroke="none">
<path d="M3485 5104 c-250 -56 -484 -222 -616 -438 l-54 -89 -140 -69 c-77 -37 -146 -68 -153 -68 -7 0 -92 38 -189 85 -97 47 -188 85 -203 85 -14 0 -105 -38 -201 -85 -95 -47 -180 -85 -187 -85 -7 0 -92 38 -189 85 -97 47 -188 85 -203 85 -15 0 -105 -38 -200 -85 -95 -47 -179 -85 -186 -85 -8 0 -93 38 -190 85 -200 96 -229 102 -275 56 l-29 -29 0 -2247 0 -2247 29 -29 c51 -51 86 -43 287 62 l174 90 176 -90 c135 -70 186 -91 216 -91 31 0 80 21 214 91 l174 91 176 -91 c134 -69 186 -91 216 -91 30 0 80 21 214 91 l174 91 176 -91 c135 -70 184 -91 215 -91 31 0 80 21 215 91 l174 91 175 -91 c201 -105 232 -111 287 -62 l33 29 5 1573 5 1572 85 17 c179 37 345 126 474 254 65 63 131 148 159 203 43 81 0 163 -85 163 -52 0 -73 -16 -124 -95 -133 -205 -374 -334 -622 -335 -114 0 -209 23 -327 80 -203 98 -351 280 -407 502 -30 121 -23 280 19 401 44 126 85 189 193 297 82 83 108 102 190 142 123 60 206 79 333 79 126 0 228 -25 336 -81 130 -68 200 -132 311 -286 44 -60 84 -74 138 -47 105 51 68 168 -107 344 -122 122 -257 201 -422 250 -100 29 -359 36 -464 13z m-1746 -894 c15 0 109 40 210 89 l184 89 179 -89 c99 -49 192 -89 207 -89 15 0 69 20 120 45 51 25 93 45 94 45 1 0 2 -69 2 -153 1 -127 4 -165 23 -231 50 -173 142 -325 270 -448 156 -148 299 -218 540 -264 l22 -4 0 -1466 0 -1465 -124 65 c-93 50 -133 66 -163 66 -31 0 -81 -21 -217 -91 l-176 -91 -175 91 c-133 70 -183 91 -213 91 -30 0 -82 -22 -216 -91 l-176 -91 -174 91 c-132 69 -183 91 -213 91 -29 0 -82 -22 -216 -91 l-177 -90 -174 90 c-133 69 -183 91 -213 91 -29 0 -71 -16 -154 -60 -63 -33 -117 -60 -121 -60 -5 0 -8 911 -8 2025 0 1114 2 2025 4 2025 3 0 60 -27 127 -60 67 -33 134 -60 148 -60 14 0 109 40 210 89 l185 89 179 -89 c98 -49 191 -89 206 -89z"/>
<path d="M1199 3861 c-23 -23 -29 -38 -29 -71 0 -52 13 -76 50 -95 25 -13 116 -15 650 -15 534 0 625 2 650 15 37 19 50 43 50 95 0 33 -6 48 -29 71 l-29 29 -642 0 -642 0 -29 -29z"/> <path d="M1199 3251 c-23 -23 -29 -38 -29 -71 0 -23 5 -50 11 -62 26 -48 24 -48 874 -48 885 0 842 -3 871 67 20 46 10 86 -28 118 l-30 25 -820 0 -820 0 -29 -29z"/> <path d="M1199 2641 c-59 -59 -27 -161 55 -176 17 -3 428 -5 914 -3 l884 3 29 33 c41 45 41 102 0 143 l-29 29 -912 0 -912 0 -29 -29z"/>
<path d="M2120 2082 c-38 -19 -58 -60 -59 -122 -1 -32 -5 -37 -45 -53 -54 -22 -120 -91 -149 -155 -31 -67 -31 -200 0 -258 45 -84 128 -141 306 -210 54 -21 109 -49 122 -62 49 -48 44 -121 -12 -183 -62 -69 -173 -76 -283 -18 -85 45 -145 35 -175 -28 -22 -47 -13 -95 25 -127 37 -31 124 -72 171 -81 35 -6 37 -9 42 -57 11 -87 54 -126 127 -114 54 8 80 45 80 114 l0 57 54 23 c155 67 249 264 203 423 -21 70 -67 139 -116 174 -22 14 -86 46 -143 70 -180 74 -218 99 -218 144 0 36 35 90 66 101 60 23 146 6 196 -37 26 -23 92 -21 125 3 38 29 52 84 31 128 -19 39 -95 93 -155 109 l-43 11 0 48 c0 58 -20 93 -62 107 -41 14 -47 14 -88 -7z"/> <path d="M3783 4268 l-223 -222 -83 81 c-45 44 -92 86 -104 92 -42 21 -83 13 -120 -24 -32 -32 -35 -39 -30 -77 5 -38 19 -56 151 -186 l145 -145 47 6 c46 5 52 9 315 273 271 272 289 295 275 350 -12 47 -50 74 -103 74 l-47 0 -223 -222z"/> <path d="M4502 4255 c-66 -29 -77 -122 -20 -170 70 -59 168 -13 168 78 0 35 -6 50 -26 71 -15 14 -32 26 -38 26 -6 0 -20 2 -31 5 -11 3 -35 -2 -53 -10z"/> </g>
</svg>
