<?xml version="1.0" standalone="no"?>
<!DOCTYPE svg PUBLIC "-//W3C//DTD SVG 20010904//EN"
 "http://www.w3.org/TR/2001/REC-SVG-20010904/DTD/svg10.dtd">
<svg version="1.0" xmlns="http://www.w3.org/2000/svg"
 width="512.000000pt" height="512.000000pt" viewBox="0 0 512.000000 512.000000"  preserveAspectRatio="xMidYMid meet"> <g transform="translate(0.000000,512.000000) scale(0.100000,-0.100000)" stroke="none">
<path d="M1435 5092 c-95 -33 -140 -62 -217 -138 -66 -66 -121 -164 -143 -255 -21 -90 -21 -416 0 -446 28 -40 111 -37 131 5 5 10 11 103 14 207 5 166 9 197 29 248 32 81 115 168 199 209 63 31 73 33 172 33 93 0 112 -3 162 -27 112 -52 202 -165 227 -286 8 -37 11 -444 11 -1367 l0 -1315 -480 0 c-264 0 -480 3 -480 6 0 3 16 25 36 47 19 23 48 69 65 102 59 120 59 121 59 1036 0 831 0 836 -21 863 -27 35 -86 36 -117 3 -21 -23 -22 -31 -22 -250 l0 -227 -458 0 -459 0 -21 -23 c-21 -22 -22 -31 -22 -243 0 -177 3 -224 15 -241 31 -44 111 -37 134 13 7 15 11 86 11 179 l0 155 400 0 400 0 0 -527 c0 -325 -4 -545 -11 -573 -46 -202 -254 -346 -451 -311 -132 23 -240 105 -300 228 l-33 68 -5 256 c-5 235 -7 259 -24 278 -27 30 -86 28 -114 -2 -21 -23 -22 -31 -22 -263 0 -272 8 -325 67 -436 65 -125 190 -227 333 -274 51 -17 114 -19 788 -22 l732 -3 0 -325 0 -325 25 -24 c29 -30 74 -32 106 -6 l24 19 3 1729 c2 1206 -1 1747 -8 1792 -16 93 -55 180 -110 250 l-50 61 1213 0 c666 -1 1243 -5 1281 -9 141 -19 276 -121 328 -248 l23 -58 3 -2227 2 -2227 -132 60 c-93 43 -139 58 -156 54 -13 -3 -92 -37 -175 -75 -83 -39 -158 -70 -165 -70 -8 0 -83 31 -166 69 -83 38 -163 72 -176 76 -19 4 -69 -14 -190 -69 -91 -42 -171 -76 -179 -76 -8 0 -83 31 -166 69 -84 39 -163 73 -177 76 -18 5 -68 -14 -189 -69 -91 -42 -171 -76 -179 -76 -7 0 -82 31 -167 70 -85 38 -164 72 -177 76 -15 3 -66 -15 -154 -55 l-132 -60 0 335 0 335 -25 24 c-32 33 -83 34 -113 2 -22 -23 -22 -26 -22 -440 0 -404 1 -418 20 -437 34 -34 77 -25 247 52 86 39 162 71 168 71 6 0 81 -32 166 -71 87 -40 169 -72 187 -72 17 0 102 32 189 72 86 39 162 71 168 71 6 0 81 -32 167 -71 86 -40 170 -72 187 -72 16 0 101 32 188 72 86 39 162 71 168 71 6 0 82 -32 168 -71 86 -40 170 -72 187 -72 17 0 101 32 187 72 86 39 162 71 168 71 6 0 82 -32 168 -71 173 -78 210 -86 245 -49 l22 24 -2 2319 -3 2319 -22 59 c-66 174 -188 294 -356 351 l-76 25 -1523 0 -1523 0 -80 -28z"/>
<path d="M3465 4775 c-21 -20 -25 -34 -25 -83 l0 -58 -54 -17 c-74 -24 -138 -82 -178 -165 -29 -59 -33 -76 -33 -152 0 -73 4 -92 27 -136 32 -61 77 -101 170 -149 l68 -36 0 -246 0 -245 -37 7 c-21 3 -66 22 -101 41 -73 39 -99 42 -136 13 -35 -27 -36 -86 -3 -116 38 -36 139 -81 210 -94 l67 -12 0 -59 c0 -49 4 -63 25 -83 15 -16 36 -25 55 -25 19 0 40 9 55 25 22 21 25 33 25 90 0 56 2 65 18 65 41 0 142 62 195 120 121 130 140 317 48 463 -37 58 -99 103 -189 139 l-67 26 -3 191 c-3 218 -3 217 79 161 49 -33 93 -38 126 -15 26 18 38 67 23 95 -19 35 -90 79 -162 101 l-68 21 0 54 c0 66 -29 104 -80 104 -19 0 -40 -9 -55 -25z m-25 -465 l0 -151 -44 30 c-66 46 -82 109 -47 187 17 38 62 84 82 84 5 0 9 -68 9 -150z m272 -457 c26 -29 48 -88 48 -130 -1 -73 -64 -173 -132 -209 l-28 -15 0 211 0 210 48 -24 c26 -13 55 -32 64 -43z"/> <path d="M2465 2835 l-25 -24 0 -249 c0 -231 1 -252 19 -273 l19 -24 256 0 c252 0 256 0 278 23 22 22 23 29 26 244 4 247 1 279 -30 308 -21 19 -36 20 -270 20 l-249 0 -24 -25z m415 -275 l0 -140 -140 0 -140 0 0 140 0 140 140 0 140 0 0 -140z"/> <path d="M3188 2750 c-25 -26 -29 -36 -24 -63 3 -18 16 -40 27 -49 20 -17 69 -18 724 -18 l704 0 20 26 c26 33 27 75 2 105 l-19 24 -702 3 -701 2 -31 -30z"/>
<path d="M3213 2500 c-52 -21 -65 -89 -26 -132 15 -17 57 -18 604 -18 l588 0 20 26 c28 35 26 67 -3 101 l-24 28 -569 2 c-317 1 -578 -2 -590 -7z"/> <path d="M2462 2057 c-21 -23 -22 -30 -22 -273 0 -249 0 -251 23 -272 23 -21 30 -22 275 -22 236 0 253 1 271 19 29 29 33 66 29 310 -3 220 -3 223 -27 242 -21 18 -42 19 -275 19 -251 0 -253 0 -274 -23z m418 -272 l0 -135 -140 0 -140 0 0 135 0 135 140 0 140 0 0 -135z"/> <path d="M3193 1985 c-44 -31 -37 -111 13 -134 18 -8 223 -11 715 -11 l690 0 24 25 c16 15 25 36 25 55 0 19 -9 40 -25 55 l-24 25 -698 0 c-600 0 -702 -2 -720 -15z"/>
<path d="M3203 1718 c-28 -14 -46 -58 -37 -92 14 -58 -3 -56 625 -56 551 0 578 1 600 19 18 14 24 29 24 60 0 81 38 76 -613 78 -392 1 -584 -2 -599 -9z"/> <path d="M2483 1300 c-40 -16 -43 -39 -43 -295 l0 -246 25 -24 24 -25 240 0 c161 0 248 4 266 12 41 18 47 61 43 311 l-3 229 -28 24 c-28 24 -29 24 -265 23 -130 0 -247 -4 -259 -9z m397 -290 l0 -140 -140 0 -140 0 0 140 0 140 140 0 140 0 0 -140z"/> <path d="M3187 1202 c-30 -33 -32 -75 -4 -108 l25 -29 674 -3 c370 -2 688 0 706 3 70 13 97 88 49 133 l-23 22 -706 0 c-668 0 -706 -1 -721 -18z"/> <path d="M3191 933 c-11 -10 -24 -32 -27 -50 -5 -27 -1 -37 24 -63 l30 -30 566 0 c393 0 572 3 589 11 49 22 61 86 22 124 l-24 25 -579 0 c-538 0 -581 -1 -601 -17z"/> </g>
</svg>
